<svg width="89" height="10" viewBox="0 0 89 10" fill="none" xmlns="http://www.w3.org/2000/svg">
<path d="M4.35246 6.972L3.34446 4.8V9H0.944463V0.599999H3.34446L5.33646 4.872L7.32846 0.599999H9.72846V9H7.32846V4.8L6.32046 6.972H4.35246ZM17.0586 9H14.5746L14.3106 8.016H12.8106L12.5586 9H10.0626L12.3186 0.599999H14.8026L17.0586 9ZM13.9266 6.576L13.5666 5.232L13.2066 6.576H13.9266ZM17.4923 0.599999H19.8923V9H17.4923V0.599999ZM20.5237 7.632L22.3477 6.252C22.5277 6.588 22.8637 6.84 23.3557 6.84C23.7877 6.84 23.9317 6.588 23.9317 6.348C23.9317 5.352 20.6677 5.856 20.6677 2.952C20.6677 1.752 21.8317 0.48 23.3317 0.48C24.7717 0.48 25.5877 1.044 26.2357 2.256L24.4357 3.42C24.2797 3.048 24.1477 2.76 23.7397 2.76C23.3557 2.76 23.1877 3.012 23.1877 3.252C23.1877 3.984 26.3317 3.792 26.3317 6.648C26.3317 8.376 24.7957 9.12 23.5717 9.12C22.0837 9.12 21.2197 8.64 20.5237 7.632ZM32.6837 5.892C32.6837 7.92 31.4837 9.12 29.8037 9.12C28.1237 9.12 26.9237 7.92 26.9237 5.892V3.708C26.9237 1.68 28.1237 0.48 29.8037 0.48C31.4837 0.48 32.6837 1.68 32.6837 3.708V5.892ZM29.3237 4.008V5.592C29.3237 6.288 29.4437 6.72 29.8037 6.72C30.1637 6.72 30.2837 6.288 30.2837 5.592V4.008C30.2837 3.312 30.1637 2.88 29.8037 2.88C29.4437 2.88 29.3237 3.312 29.3237 4.008ZM37.1755 0.599999H39.5755V9H37.1755V8.964L35.8195 5.292V9H33.4195V0.599999H35.8195L37.1755 4.284V0.599999ZM50.0993 4.8C50.0993 7.44 48.4073 9 46.7273 9H43.9673V0.599999H46.7273C48.4073 0.599999 50.0993 2.16 50.0993 4.8ZM47.6873 4.8C47.6873 3.6 47.2673 3.012 46.7273 3.012H46.3793V6.588H46.7273C47.2673 6.588 47.6873 6 47.6873 4.8ZM55.7209 9H50.7529V0.599999H55.7209V3H53.1649V3.864H55.3009V5.7H53.1649V6.6H55.7209V9ZM63.8731 0.599999H66.2731V9H63.8731V8.964L62.5171 5.292V9H60.1171V0.599999H62.5171L63.8731 4.284V0.599999ZM73.6062 9H71.1222L70.8582 8.016H69.3582L69.1062 9H66.6102L68.8662 0.599999H71.3502L73.6062 9ZM70.4742 6.576L70.1142 5.232L69.7542 6.576H70.4742ZM74.0399 0.599999H76.4399V9H74.0399V0.599999ZM79.6633 0.599999V6.6H82.2193V9H77.2513V0.599999H79.6633ZM82.6265 7.632L84.4505 6.252C84.6305 6.588 84.9665 6.84 85.4585 6.84C85.8905 6.84 86.0345 6.588 86.0345 6.348C86.0345 5.352 82.7705 5.856 82.7705 2.952C82.7705 1.752 83.9345 0.48 85.4345 0.48C86.8745 0.48 87.6905 1.044 88.3385 2.256L86.5385 3.42C86.3825 3.048 86.2505 2.76 85.8425 2.76C85.4585 2.76 85.2905 3.012 85.2905 3.252C85.2905 3.984 88.4345 3.792 88.4345 6.648C88.4345 8.376 86.8985 9.12 85.6745 9.12C84.1865 9.12 83.3225 8.64 82.6265 7.632Z" fill="black"/>
</svg>
